<?xml version="1.0" encoding="iso-8859-1"?><!-- Generator: Adobe Illustrator 16.0.0, SVG Export Plug-In . SVG Version: 6.00 Build 0) --><!DOCTYPE svg PUBLIC "-//W3C//DTD SVG 1.1//EN" "http://www.w3.org/Graphics/SVG/1.1/DTD/svg11.dtd"><svg version="1.1" id="Layer_1" xmlns="http://www.w3.org/2000/svg" xmlns:xlink="http://www.w3.org/1999/xlink" x="0px" y="0px" width="1619.125px" height="479.868px" viewBox="0 0 1619.125 479.868" style="enable-background:new 0 0 1619.125 479.868;" xml:space="preserve"><g><path style="fill:#FFFFFF;" d="M1608.385,423.216c0,25.393-20.568,45.96-46.008,45.96H56.748c-25.428,0-46.067-20.567-46.067-45.96	V56.7c0-25.38,20.64-46.02,46.067-46.02h1505.616c25.452,0,46.009,20.64,46.009,46.02L1608.385,423.216L1608.385,423.216z"/><path style="fill:#A6A6A6;" d="M1562.377,479.868H56.748C25.464,479.868,0,454.464,0,423.216V56.712C0,25.44,25.464,0,56.748,0	h1505.616c31.248,0,56.748,25.44,56.748,56.712v366.504C1619.136,454.464,1593.636,479.868,1562.377,479.868L1562.377,479.868z"/><path d="M1608.385,423.216c0,25.393-20.568,45.96-46.008,45.96H56.748c-25.428,0-46.067-20.567-46.067-45.96V56.7	c0-25.38,20.64-46.02,46.067-46.02h1505.616c25.452,0,46.009,20.64,46.009,46.02L1608.385,423.216L1608.385,423.216z"/><path style="fill:#FFFFFF;" d="M361.536,237.408c-0.348-38.676,31.668-57.492,33.132-58.368	c-18.132-26.436-46.235-30.048-56.111-30.336c-23.604-2.484-46.5,14.124-58.524,14.124c-12.264,0-30.78-13.884-50.736-13.476	c-25.68,0.396-49.703,15.264-62.88,38.352c-27.191,47.076-6.912,116.256,19.141,154.308c13.031,18.648,28.26,39.444,48.191,38.712	c19.5-0.792,26.784-12.42,50.316-12.42c23.315,0,30.156,12.42,50.483,11.952c20.929-0.324,34.104-18.72,46.681-37.524	c15.06-21.348,21.107-42.396,21.348-43.476C402.096,299.088,361.944,283.752,361.536,237.408z"/><path style="fill:#FFFFFF;" d="M323.136,123.672c10.487-13.116,17.664-30.96,15.672-49.068	c-15.181,0.672-34.164,10.5-45.097,23.328c-9.672,11.304-18.312,29.832-16.08,47.256	C294.684,146.46,312.192,136.584,323.136,123.672z"/><linearGradient id="SVGID_1_" gradientUnits="userSpaceOnUse" x1="-589.9919" y1="1661.375" x2="-589.9919" y2="1625.3291" gradientTransform="matrix(12 0 0 12 8267.4326 -19455.3281)"><stop offset="0" style="stop-color:#1A1A1A;stop-opacity:0.1"/><stop offset="0.1235" style="stop-color:#212121;stop-opacity:0.1506"/><stop offset="0.3085" style="stop-color:#353535;stop-opacity:0.2265"/><stop offset="0.5321" style="stop-color:#575757;stop-opacity:0.3181"/><stop offset="0.7834" style="stop-color:#858585;stop-opacity:0.4212"/><stop offset="1" style="stop-color:#B3B3B3;stop-opacity:0.51"/></linearGradient><path style="fill:url(#SVGID_1_);" d="M1562.377,0H755.916l315.877,479.868h490.584c31.248,0,56.748-25.404,56.748-56.688V56.712	C1619.136,25.44,1593.636,0,1562.377,0z"/><g><path style="fill:#FFFFFF;" d="M643.98,378.048h-27.252l-14.928-46.908h-51.889l-14.22,46.908H509.16l51.42-159.696h31.752	L643.98,378.048z M597.301,311.46l-13.5-41.7c-1.428-4.26-4.116-14.292-8.053-30.084h-0.479	c-1.584,6.792-4.116,16.824-7.584,30.084l-13.272,41.7H597.301z"/><path style="fill:#FFFFFF;" d="M775.957,319.056c0,19.584-5.316,35.064-15.961,46.429c-9.527,10.115-21.371,15.168-35.496,15.168	c-15.252,0-26.22-5.437-32.88-16.332v60.42h-25.584V300.744c0-12.301-0.323-24.912-0.947-37.848h22.5l1.428,18.252h0.479	c8.532-13.752,21.48-20.629,38.856-20.629c13.584,0,24.924,5.364,33.996,16.104C771.408,287.388,775.957,301.524,775.957,319.056z M749.892,319.992c0-11.208-2.52-20.448-7.584-27.732c-5.532-7.572-12.96-11.363-22.272-11.363	c-6.312,0-12.048,2.111-17.172,6.275c-5.136,4.2-8.496,9.684-10.067,16.476c-0.792,3.168-1.188,5.748-1.188,7.789v19.211	c0,8.364,2.568,15.433,7.704,21.217c5.136,5.76,11.808,8.651,20.016,8.651c9.637,0,17.137-3.731,22.5-11.136	C747.204,341.952,749.892,332.16,749.892,319.992z"/><path style="fill:#FFFFFF;" d="M908.4,319.056c0,19.584-5.316,35.064-15.96,46.429c-9.54,10.115-21.372,15.168-35.508,15.168	c-15.252,0-26.22-5.437-32.88-16.332v60.42h-25.584V300.744c0-12.301-0.324-24.912-0.948-37.848h22.5l1.428,18.252h0.48	c8.52-13.752,21.468-20.629,38.855-20.629c13.572,0,24.912,5.364,34.009,16.104C903.841,287.388,908.4,301.524,908.4,319.056z M882.324,319.992c0-11.208-2.531-20.448-7.596-27.732c-5.532-7.572-12.936-11.363-22.248-11.363	c-6.312,0-12.048,2.111-17.196,6.275c-5.136,4.2-8.483,9.684-10.056,16.476c-0.78,3.168-1.2,5.748-1.2,7.789v19.211	c0,8.364,2.58,15.433,7.692,21.217c5.136,5.748,11.808,8.651,20.04,8.651c9.647,0,17.147-3.731,22.5-11.136	C879.636,341.952,882.324,332.16,882.324,319.992z"/><path style="fill:#FFFFFF;" d="M1056.48,333.252c0,13.596-4.752,24.648-14.195,33.18c-10.393,9.312-24.9,13.98-43.501,13.98	c-17.184,0-30.96-3.312-41.352-9.948l5.916-21.324c11.22,6.648,23.544,9.96,36.96,9.96c9.648,0,17.148-2.184,22.5-6.516	c5.363-4.344,8.076-10.152,8.076-17.4c0-6.491-2.244-11.928-6.648-16.355c-4.428-4.416-11.748-8.532-22.031-12.312	c-27.961-10.428-41.953-25.68-41.953-45.744c0-13.104,4.944-23.832,14.809-32.22c9.864-8.376,22.944-12.563,39.216-12.563	c14.532,0,26.64,2.532,36.252,7.584l-6.42,20.855c-9.048-4.896-19.261-7.344-30.685-7.344c-9.023,0-16.104,2.22-21.168,6.636	c-4.26,3.948-6.42,8.761-6.42,14.472c0,6.301,2.461,11.533,7.356,15.637c4.248,3.779,12,7.896,23.208,12.312	c13.752,5.544,23.855,12,30.324,19.416C1053.24,312.972,1056.48,322.224,1056.48,333.252z"/><path style="fill:#FFFFFF;" d="M1141.285,282.096h-28.201v55.908c0,14.22,4.969,21.312,14.929,21.312	c4.571,0,8.364-0.385,11.364-1.188l0.707,19.428c-5.039,1.885-11.676,2.832-19.896,2.832c-10.104,0-18-3.084-23.7-9.252	c-5.676-6.168-8.531-16.5-8.531-31.044v-58.044h-16.801v-19.2h16.801v-21.084l25.127-7.584v28.668h28.201V282.096z"/><path style="fill:#FFFFFF;" d="M1268.268,319.524c0,17.699-5.063,32.231-15.168,43.596c-10.572,11.7-24.636,17.532-42.168,17.532	c-16.92,0-30.372-5.604-40.404-16.8c-10.032-11.221-15.048-25.356-15.048-42.408c0-17.845,5.184-32.46,15.516-43.824	c10.356-11.376,24.301-17.063,41.832-17.063c16.896,0,30.469,5.615,40.74,16.823	C1263.385,288.252,1268.268,302.292,1268.268,319.524z M1241.748,320.112c0-10.549-2.279-19.597-6.852-27.169	c-5.364-9.144-13.044-13.715-22.992-13.715c-10.248,0-18.107,4.571-23.46,13.715c-4.584,7.572-6.864,16.776-6.864,27.648	c0,10.561,2.28,19.632,6.864,27.181c5.532,9.144,13.248,13.716,23.244,13.716c9.78,0,17.448-4.668,22.992-13.944	C1239.385,339.792,1241.748,330.684,1241.748,320.112z"/><path style="fill:#FFFFFF;" d="M1351.465,285.396c-2.532-0.469-5.244-0.709-8.064-0.709c-9,0-15.96,3.385-20.855,10.2	c-4.248,6-6.385,13.584-6.385,22.74v60.42h-25.584V299.16c0-13.26-0.252-25.356-0.744-36.252h22.285l0.936,22.031h0.708	c2.712-7.571,6.96-13.68,12.792-18.252c5.7-4.115,11.855-6.168,18.492-6.168c2.363,0,4.5,0.168,6.396,0.469L1351.465,285.396	L1351.465,285.396z"/><path style="fill:#FFFFFF;" d="M1465.885,315.024c0,4.584-0.301,8.447-0.937,11.604h-76.752	c0.288,11.376,4.009,20.088,11.136,26.088c6.469,5.353,14.832,8.04,25.104,8.04c11.364,0,21.731-1.8,31.056-5.436l4.008,17.748	c-10.896,4.752-23.76,7.116-38.604,7.116c-17.855,0-31.872-5.257-42.072-15.744c-10.176-10.5-15.275-24.612-15.275-42.288	c0-17.353,4.74-31.812,14.231-43.344c9.937-12.312,23.364-18.469,40.261-18.469c16.596,0,29.159,6.156,37.691,18.469	C1462.488,288.564,1465.885,300.66,1465.885,315.024z M1441.488,308.388c0.18-7.596-1.5-14.136-4.968-19.668	c-4.429-7.128-11.244-10.68-20.376-10.68c-8.364,0-15.18,3.468-20.364,10.428c-4.26,5.532-6.792,12.18-7.571,19.896	L1441.488,308.388L1441.488,308.388z"/></g><g><path style="fill:#FFFFFF;" d="M584.965,161.196H571.56l-7.332-23.052h-25.5l-6.996,23.052h-13.044l25.272-78.492h15.6	L584.965,161.196z M562.02,128.472l-6.636-20.496c-0.696-2.1-1.98-6.984-3.96-14.784h-0.24c-0.816,3.372-1.98,8.268-3.732,14.784	l-6.516,20.496H562.02z"/><path style="fill:#FFFFFF;" d="M648.156,104.604l-21.432,56.592h-12.229l-20.735-56.592h13.512l9.672,29.928	c1.632,5.004,3.024,9.78,4.068,14.316h0.348c0.937-4.068,2.328-8.844,4.068-14.316l9.552-29.928H648.156z"/><path style="fill:#FFFFFF;" d="M693.78,161.196l-0.936-6.517h-0.349c-3.84,5.244-9.432,7.8-16.535,7.8	c-10.129,0-17.353-7.104-17.353-16.656c0-13.968,12.108-21.192,33.072-21.192v-1.044c0-7.452-3.96-11.184-11.76-11.184	c-5.593,0-10.488,1.404-14.784,4.2l-2.557-8.268c5.244-3.264,11.761-4.896,19.452-4.896c14.784,0,22.248,7.8,22.248,23.412v20.844	c0,5.712,0.24,10.14,0.816,13.512L693.78,161.196L693.78,161.196z M692.028,133.008c-13.979,0-20.964,3.384-20.964,11.412	c0,5.94,3.612,8.844,8.616,8.844c6.407,0,12.348-4.884,12.348-11.52V133.008z"/><path style="fill:#FFFFFF;" d="M732.288,95.28c-4.188,0-7.452-3.264-7.452-7.572s3.373-7.452,7.692-7.452	c4.308,0,7.8,3.144,7.681,7.452C740.209,92.256,736.957,95.28,732.288,95.28z M738.816,161.196H726.24v-56.592h12.576V161.196z"/><path style="fill:#FFFFFF;" d="M773.736,161.196H761.16V78.636h12.576V161.196z"/><path style="fill:#FFFFFF;" d="M827.184,161.196l-0.937-6.517H825.9c-3.84,5.244-9.432,7.8-16.536,7.8	c-10.128,0-17.352-7.104-17.352-16.656c0-13.968,12.107-21.192,33.071-21.192v-1.044c0-7.452-3.96-11.184-11.76-11.184	c-5.592,0-10.488,1.404-14.784,4.2l-2.567-8.28c5.244-3.264,11.76-4.896,19.452-4.896c14.784,0,22.247,7.8,22.247,23.412v20.844	c0,5.712,0.253,10.14,0.805,13.512H827.184z M825.432,133.008c-13.98,0-20.964,3.384-20.964,11.412	c0,5.94,3.611,8.844,8.615,8.844c6.408,0,12.349-4.884,12.349-11.52V133.008z"/><path style="fill:#FFFFFF;" d="M888.625,162.48c-8.028,0-13.957-3.384-17.797-10.02h-0.252l-0.72,8.736H859.14	c0.348-4.536,0.468-9.672,0.468-15.252V78.636h12.588v34.248h0.24c3.731-6.288,9.769-9.432,18.048-9.432	c13.632,0,23.184,11.652,23.184,28.644C913.668,149.664,903.06,162.48,888.625,162.48z M886.068,113.328	c-7.236,0-13.859,6.288-13.859,15.024v9.9c0,7.8,5.951,14.208,13.644,14.208c9.42,0,15.024-7.68,15.024-19.908	C900.864,121.14,895.032,113.328,886.068,113.328z"/><path style="fill:#FFFFFF;" d="M944.832,161.196h-12.563V78.636h12.563V161.196z"/><path style="fill:#FFFFFF;" d="M1013.293,135.924h-37.752c0.252,10.716,7.331,16.764,17.819,16.764	c5.592,0,10.716-0.936,15.252-2.676l1.956,8.736c-5.352,2.328-11.64,3.492-18.972,3.492c-17.712,0-28.188-11.184-28.188-28.524	c0-17.352,10.729-30.396,26.772-30.396c14.437,0,23.532,10.716,23.532,26.904C1013.76,132.432,1013.652,134.412,1013.293,135.924z M1001.76,126.96c0-8.736-4.429-14.904-12.468-14.904c-7.225,0-12.912,6.288-13.752,14.904H1001.76z"/><path style="fill:#FFFFFF;" d="M1089.516,162.48c-16.536,0-27.252-12.348-27.252-29.112c0-17.472,10.944-29.928,28.2-29.928	c16.283,0,27.252,11.76,27.252,29.004C1117.717,150.132,1106.412,162.48,1089.516,162.48z M1089.996,112.632	c-9.084,0-14.903,8.496-14.903,20.376c0,11.652,5.94,20.148,14.784,20.148s14.771-9.084,14.771-20.388	C1104.66,121.248,1098.84,112.632,1089.996,112.632z"/><path style="fill:#FFFFFF;" d="M1185.324,161.196h-12.563V128.7c0-10.008-3.841-15.024-11.412-15.024	c-7.452,0-12.588,6.408-12.588,13.86v33.66h-12.564V120.78c0-5.004-0.132-10.368-0.468-16.188h11.064l0.588,8.736h0.348	c3.359-6.048,10.248-9.9,17.928-9.9c11.868,0,19.668,9.084,19.668,23.868V161.196L1185.324,161.196z"/><path style="fill:#FFFFFF;" d="M1267.608,114.036h-13.836v27.48c0,6.996,2.437,10.488,7.32,10.488c2.22,0,4.092-0.24,5.592-0.588	l0.349,9.552c-2.449,0.937-5.725,1.404-9.769,1.404c-9.912,0-15.828-5.472-15.828-19.8v-28.536h-8.256v-9.432h8.256V94.236	l12.336-3.732v14.088h13.836V114.036z"/><path style="fill:#FFFFFF;" d="M1334.209,161.196h-12.589V128.94c0-10.128-3.84-15.252-11.411-15.252	c-6.517,0-12.564,4.428-12.564,13.392v34.116h-12.588V78.636h12.588v33.996h0.24c3.96-6.168,9.672-9.204,17.004-9.204	c11.988,0,19.32,9.312,19.32,24.108V161.196z"/><path style="fill:#FFFFFF;" d="M1398.469,135.924h-37.74c0.24,10.716,7.32,16.764,17.809,16.764	c5.604,0,10.715-0.936,15.252-2.676l1.968,8.736c-5.353,2.328-11.652,3.492-18.984,3.492c-17.712,0-28.188-11.184-28.188-28.524	c0-17.352,10.729-30.396,26.772-30.396c14.437,0,23.532,10.716,23.532,26.904C1398.936,132.432,1398.816,134.412,1398.469,135.924	z M1386.936,126.96c0-8.736-4.416-14.904-12.456-14.904c-7.236,0-12.924,6.288-13.752,14.904H1386.936z"/></g></g></svg>