<?xml version="1.0" encoding="iso-8859-1"?><!-- Generator: Adobe Illustrator 16.0.0, SVG Export Plug-In . SVG Version: 6.00 Build 0) --><!DOCTYPE svg PUBLIC "-//W3C//DTD SVG 1.1//EN" "http://www.w3.org/Graphics/SVG/1.1/DTD/svg11.dtd"><svg version="1.1" id="Layer_1" xmlns="http://www.w3.org/2000/svg" xmlns:xlink="http://www.w3.org/1999/xlink" x="0px" y="0px" width="6137.761px" height="2007.732px" viewBox="2.86 0.814 6137.761 2007.732" style="enable-background:new 2.86 0.814 6137.761 2007.732;" xml:space="preserve"><path d="M6140.621,1737.202c0,149.832-121.453,271.344-271.261,271.344H274.18c-149.82,0.012-271.32-121.5-271.32-271.344V272.134	c0-149.82,121.5-271.32,271.32-271.32h5595.168c149.808,0,271.261,121.5,271.261,271.32v1465.068H6140.621z"/><g id="PLAY_2_"><g><defs><path id="SVGID_1_" d="M1332.988,884.566l-276.756-159.78c0,0-504.191-291.132-533.832-308.244	c-29.64-17.112-59.172-6.744-59.172,29.016c0,59.58,0,621.601,0,621.601s0,607.38,0,634.212	c0,26.808,21.107,38.364,46.859,23.508c25.74-14.88,546.145-315.348,546.145-315.348l276.744-159.769	c0,0,234.816-135.563,266.027-153.576c31.213-18.036,28.213-42.756,1.873-56.939	C1574.548,1025.05,1332.988,884.566,1332.988,884.566z"/></defs><clipPath id="SVGID_2_"><use xlink:href="#SVGID_1_" style="overflow:visible;"/></clipPath><linearGradient id="SVGID_3_" gradientUnits="userSpaceOnUse" x1="1451.4795" y1="2452.5117" x2="1451.4795" y2="2339.209" gradientTransform="matrix(12 0 0 -12 -16611.7051 29817.4922)"><stop offset="0" style="stop-color:#257CB0"/><stop offset="0.2863" style="stop-color:#4A93B5"/><stop offset="0.767" style="stop-color:#78BCBB"/><stop offset="1" style="stop-color:#89CFBD"/></linearGradient><polygon style="clip-path:url(#SVGID_2_);fill:url(#SVGID_3_);" points="463.24,387.346 463.24,1067.158 463.24,1746.982	1148.848,1067.17	"/></g><g><defs><path id="SVGID_4_" d="M1332.988,884.566l-276.756-159.78c0,0-504.191-291.132-533.832-308.244	c-29.64-17.112-59.172-6.744-59.172,29.016c0,59.58,0,621.601,0,621.601s0,607.38,0,634.212	c0,26.808,21.107,38.364,46.859,23.508c25.74-14.88,546.145-315.348,546.145-315.348l276.744-159.769	c0,0,234.816-135.563,266.027-153.576c31.213-18.036,28.213-42.756,1.873-56.939	C1574.548,1025.05,1332.988,884.566,1332.988,884.566z"/></defs><clipPath id="SVGID_5_"><use xlink:href="#SVGID_4_" style="overflow:visible;"/></clipPath><linearGradient id="SVGID_6_" gradientUnits="userSpaceOnUse" x1="1422.9126" y1="2424.3926" x2="1495.3916" y2="2424.3926" gradientTransform="matrix(12 0 0 -12 -16611.7051 29817.4922)"><stop offset="0" style="stop-color:#52C1AD"/><stop offset="1" style="stop-color:#DEE89A"/></linearGradient><polygon style="clip-path:url(#SVGID_5_);fill:url(#SVGID_6_);" points="1332.988,884.566 1056.232,724.786 463.24,382.402	463.24,387.346 1148.848,1067.17	"/></g><g><defs><path id="SVGID_7_" d="M1332.988,884.566l-276.756-159.78c0,0-504.191-291.132-533.832-308.244	c-29.64-17.112-59.172-6.744-59.172,29.016c0,59.58,0,621.601,0,621.601s0,607.38,0,634.212	c0,26.808,21.107,38.364,46.859,23.508c25.74-14.88,546.145-315.348,546.145-315.348l276.744-159.769	c0,0,234.816-135.563,266.027-153.576c31.213-18.036,28.213-42.756,1.873-56.939	C1574.548,1025.05,1332.988,884.566,1332.988,884.566z"/></defs><clipPath id="SVGID_8_"><use xlink:href="#SVGID_7_" style="overflow:visible;"/></clipPath><linearGradient id="SVGID_9_" gradientUnits="userSpaceOnUse" x1="1459.1514" y1="2395.8604" x2="1459.1514" y2="2338.7969" gradientTransform="matrix(12 0 0 -12 -16611.7051 29817.4922)"><stop offset="0" style="stop-color:#EC413D"/><stop offset="0.1668" style="stop-color:#DA4452"/><stop offset="0.5748" style="stop-color:#B0487A"/><stop offset="0.8619" style="stop-color:#954A92"/><stop offset="1" style="stop-color:#8A4A9D"/></linearGradient><polygon style="clip-path:url(#SVGID_8_);fill:url(#SVGID_9_);" points="463.24,1746.982 463.24,1751.926 1056.232,1409.53	1332.976,1249.75 1148.848,1067.17	"/></g><g><defs><path id="SVGID_10_" d="M1332.988,884.566l-276.756-159.78c0,0-504.191-291.132-533.832-308.244	c-29.64-17.112-59.172-6.744-59.172,29.016c0,59.58,0,621.601,0,621.601s0,607.38,0,634.212	c0,26.808,21.107,38.364,46.859,23.508c25.74-14.88,546.145-315.348,546.145-315.348l276.744-159.769	c0,0,234.816-135.563,266.027-153.576c31.213-18.036,28.213-42.756,1.873-56.939	C1574.548,1025.05,1332.988,884.566,1332.988,884.566z"/></defs><clipPath id="SVGID_11_"><use xlink:href="#SVGID_10_" style="overflow:visible;"/></clipPath><linearGradient id="SVGID_12_" gradientUnits="userSpaceOnUse" x1="1500.897" y1="2411.0771" x2="1500.897" y2="2380.6455" gradientTransform="matrix(12 0 0 -12 -16611.7051 29817.4922)"><stop offset="0" style="stop-color:#F58879"/><stop offset="0.1194" style="stop-color:#F69079"/><stop offset="0.7128" style="stop-color:#FCB877"/><stop offset="1" style="stop-color:#FEC874"/></linearGradient><polygon style="clip-path:url(#SVGID_11_);fill:url(#SVGID_12_);" points="1332.988,884.566 1148.848,1067.17 1332.976,1249.75	1649.259,1067.158	"/></g></g><path style="fill:#F9F9F9;" d="M4779.556,1332.946c-25.752,0-49.248-4.752-70.524-14.244c-21.276-9.504-39.155-24.12-53.592-43.824	h-4.319c2.879,23.088,4.319,44.977,4.319,65.652v162.708h-59.856V930.322h48.696l8.28,54.12h2.88	c15.407-21.66,33.336-37.272,53.771-46.896c20.437-9.624,43.896-14.436,70.332-14.436c52.44,0,92.916,17.928,121.404,53.76	c28.5,35.832,42.756,86.112,42.756,150.792c0,64.944-14.496,115.38-43.452,151.368	C4871.272,1314.981,4831.048,1332.946,4779.556,1332.946z M4770.892,973.978c-40.404,0-69.624,11.196-87.66,33.553	c-18.036,22.367-27.3,57.972-27.792,106.8v13.332c0,55.571,9.264,95.315,27.792,119.256s48.24,35.88,89.1,35.88	c34.176,0,60.937-13.812,80.305-41.472c19.344-27.648,29.027-65.772,29.027-114.384c0-49.284-9.684-87.133-29.027-113.461	C4833.28,987.13,4806.016,973.978,4770.892,973.978z"/><path style="fill:#F9F9F9;" d="M5082.376,1325.722h-59.881V764.362h59.881V1325.722z"/><path style="fill:#F9F9F9;" d="M5426.692,1325.722l-11.916-56.279h-2.88c-19.729,24.791-39.385,41.579-58.992,50.327	c-19.596,8.796-44.076,13.177-73.404,13.177c-39.203,0-69.924-10.104-92.184-30.301c-22.26-20.195-33.372-48.924-33.372-86.22	c0-79.836,63.864-121.692,191.567-125.556l67.129-2.172v-24.528c0-31.032-6.685-53.952-20.041-68.724	c-13.332-14.809-34.716-22.2-64.031-22.2c-32.965,0-70.248,10.104-111.841,30.3l-18.407-45.816	c19.5-10.584,40.824-18.875,64.056-24.888c23.208-6.012,46.464-9.023,69.804-9.023c47.137,0,82.068,10.452,104.809,31.38	c22.716,20.928,34.08,54.479,34.08,100.668v269.844h-44.376V1325.722z M5291.404,1283.53c37.26,0,66.54-10.225,87.84-30.66	c21.265-20.437,31.933-49.068,31.933-85.884v-35.712l-59.916,2.508c-47.616,1.716-81.925,9.084-102.996,22.224	c-21.036,13.104-31.561,33.492-31.561,61.152c0,21.636,6.54,38.124,19.669,49.403	C5249.488,1277.878,5267.812,1283.53,5291.404,1283.53z"/><path style="fill:#F9F9F9;" d="M5505.832,930.322h64.2l86.593,225.491c18.996,51.48,30.791,88.633,35.375,111.492h2.881	c3.131-12.288,9.695-33.252,19.655-62.987c9.984-29.712,42.647-121.021,97.944-273.996h64.248l-169.944,450.252	c-16.824,44.496-36.491,76.067-59.004,94.739c-22.476,18.624-50.088,27.925-82.764,27.925c-18.288,0-36.324-2.04-54.144-6.12	v-47.977c13.223,2.88,28.031,4.332,44.388,4.332c41.136,0,70.452-23.088,88.032-69.275l21.996-56.269L5505.832,930.322z"/><path style="fill:#F9F9F9;" d="M3670.167,967.066c19.009,15.731,58.705,48.779,58.705,111.672c0,61.164-34.74,90.168-69.48,117.42	c-10.752,10.739-23.16,22.355-23.16,40.571c0,18.156,12.396,28.093,21.528,35.545l29.784,23.111	c36.384,30.612,69.432,58.752,69.432,115.836c0,77.736-75.264,156.276-217.488,156.276c-119.939,0-177.803-57.048-177.803-118.284	c0-29.76,14.819-71.916,63.684-100.896c51.24-31.428,120.756-35.52,157.955-38.063c-11.615-14.868-24.815-30.588-24.815-56.184	c0-14.04,4.152-22.32,8.269-32.292c-9.133,0.84-18.217,1.668-26.496,1.668c-87.637,0-137.256-65.34-137.256-129.816	c0-38.052,17.388-80.256,52.908-110.82c47.159-38.867,103.391-45.504,148.092-45.504h170.328l-52.933,29.772h-51.253V967.066z M3611.427,1334.29c-6.611-0.864-10.764-0.864-18.996-0.864c-7.439,0-52.163,1.692-86.855,13.296	c-18.191,6.564-71.137,26.412-71.137,85.164c0,58.692,57.097,100.933,145.597,100.933c79.344,0,121.571-38.124,121.571-89.353	C3701.608,1401.202,3674.308,1378.966,3611.427,1334.29z M3635.427,1177.126c18.996-19.044,20.629-45.48,20.629-60.384	c0-59.532-35.545-152.16-104.172-152.16c-21.529,0-44.664,10.74-57.9,27.3c-14.041,17.364-18.217,39.672-18.217,61.2	c0,55.404,32.256,147.216,103.416,147.216C3599.86,1200.298,3622.144,1190.374,3635.427,1177.126z"/><path style="fill:#F9F9F9;" d="M3149.5,1321.054c-131.268,0-201.455-102.396-201.455-194.892	c0-108.181,88.332-200.616,213.888-200.616c121.319,0,197.292,94.92,197.292,194.855	C3359.236,1217.794,3284.128,1321.054,3149.5,1321.054z M3252.701,1254.178c19.848-26.448,24.803-59.46,24.803-91.691	c0-72.685-34.68-211.38-137.076-211.38c-27.239,0-54.479,10.752-74.291,28.128c-32.209,28.859-38.016,65.208-38.016,100.752	c0,81.684,40.463,216.239,140.399,216.239C3200.716,1296.226,3233.751,1280.566,3252.701,1254.178z"/><path style="fill:#F9F9F9;" d="M2701.96,1321.054c-131.293,0-201.492-102.396-201.492-194.892	c0-108.181,88.367-200.616,213.888-200.616c121.356,0,197.315,94.92,197.315,194.855	C2911.684,1217.794,2836.564,1321.054,2701.96,1321.054z M2805.184,1254.178c19.812-26.448,24.78-59.46,24.78-91.691	c0-72.685-34.705-211.38-137.101-211.38c-27.228,0-54.491,10.752-74.292,28.128c-32.208,28.859-37.98,65.208-37.98,100.752	c0,81.684,40.44,216.239,140.389,216.239C2753.188,1296.226,2786.201,1280.566,2805.184,1254.178z"/><path style="fill:#F9F9F9;" d="M2437.396,1308.106l-118.729,27.396c-48.168,7.488-91.319,14.076-136.955,14.076	c-229.152,0-316.284-168.528-316.284-300.528c0-161.027,123.672-310.416,335.388-310.416c44.844,0,87.973,6.624,126.984,17.424	c62.256,17.437,91.309,39,109.584,51.469l-68.928,65.579l-29.04,6.612l20.748-33.216c-28.212-27.372-79.728-78-177.648-78	c-131.172,0-229.979,99.66-229.979,244.92c0,156.024,112.92,302.964,293.855,302.964c53.184,0,80.521-10.775,105.444-20.76v-133.62	l-125.328,6.636l66.384-35.735h176.004l-21.564,20.748c-5.855,5.004-6.659,6.684-8.315,13.26	c-0.864,7.488-1.644,31.584-1.644,39.876v101.316H2437.396z"/><path style="fill:#F9F9F9;" d="M3932.548,1284.202c-27.408-2.496-33.145-7.452-33.145-39.864v-9.144V774.49	c0.168-1.788,0.276-3.624,0.443-5.353c3.349-29.04,11.641-34.02,37.404-48.983H3818.5l-62.279,29.892h63.468v0.372l-0.048-0.3	v485.088v27.42c0,16.572-3.276,19.092-22.393,43.968h146.953l30.719-18.216C3960.82,1286.662,3946.684,1285.858,3932.548,1284.202z"	/><path style="fill:#F9F9F9;" d="M4270.347,1291.834c-9.035,4.956-18.107,10.752-27.144,14.844	c-27.252,12.36-55.271,15.672-80.052,15.672c-26.316,0-67.572-1.704-109.656-32.172c-58.487-41.256-84.047-112.151-84.047-173.964	c0-127.764,103.871-190.416,188.783-190.416c29.688,0,60.229,7.404,84.96,23.101c41.185,27.155,51.899,62.604,57.636,81.575	l-193.691,78.349l-63.492,4.943c20.58,104.7,91.477,165.66,169.824,165.66c42.036,0,72.552-14.808,100.572-28.8L4270.347,1291.834z M4192.876,1046.122c15.636-5.748,23.879-10.716,23.879-22.248c0-32.952-37.08-70.896-81.636-70.896	c-33.013,0-94.8,25.572-94.8,114.589c0,14.016,1.656,28.848,2.508,43.739L4192.876,1046.122z"/><path style="fill:#F9F9F9;" d="M4349.919,931.438v54.396h-6.611v-54.396h-18v-5.641h42.6v5.641H4349.919z"/><path style="fill:#F9F9F9;" d="M4424.08,985.834v-54.9h-0.3l-16.752,54.9h-5.172l-16.896-54.9h-0.217v54.9h-6v-60.036h10.284	l15.288,48.528h0.216l15.06-48.528h10.429v60.036H4424.08z"/><path style="fill:#F9F9FA;" d="M2030.308,576.994h-41.256c0-5.676-3.912-21.744-11.736-48.216h-59.557	c-8.075,26.04-12.119,42.107-12.119,48.216h-38.796c0-3.349,10.032-30.853,30.096-82.5c20.063-51.648,30.096-80.101,30.096-85.332	h48.732c0,4.896,9.084,32.928,27.264,84.108C2021.212,544.45,2030.308,572.35,2030.308,576.994z M1970.751,504.154	c-14.699-44.341-22.043-68.316-22.043-71.929h-2.064c0,3.349-7.608,27.324-22.812,71.929H1970.751z"/><path style="fill:#F9F9FA;" d="M2196.532,576.994h-31.836c0-3.528-11.819-22.128-35.448-55.812	c-24.744-35.496-38.844-59.76-42.275-72.827h-2.064c2.148,18.815,3.229,35.831,3.229,51.048c0,21.228,0.6,47.1,1.8,77.604h-31.716	c1.283-26.64,1.932-55.896,1.932-87.78c0-31.367-0.648-58.056-1.932-80.052h38.279c0,4.56,10.608,22.74,31.836,54.528	c22.597,33.768,35.58,56.676,38.929,68.712h1.932c-2.063-19.164-3.096-36.349-3.096-51.564c0-23.279-0.601-47.184-1.8-71.676h32.232	c-1.213,21.312-1.801,48-1.801,80.052C2194.72,521.518,2195.32,550.774,2196.532,576.994z"/><path style="fill:#F9F9FA;" d="M2383.36,487.271c0,24.407-7.823,45.72-23.46,63.936c-15.648,18.228-37.561,27.324-65.748,27.324	c-12.72,0-30.252-0.517-52.596-1.549c1.115-25.955,1.68-55.224,1.68-87.779c0-31.272-0.564-57.96-1.68-80.053h22.561	c3.695,0,9.191-0.132,16.5-0.384c7.295-0.252,12.071-0.384,14.303-0.384c31.021,0,53.509,7.74,67.488,23.208	C2376.376,447.058,2383.36,465.61,2383.36,487.271z M2348.175,492.813c0-16.5-4.812-30.396-14.436-41.712	c-9.624-11.292-24.324-16.943-44.088-16.943c-3.695,0-8.76,0.384-15.216,1.164c0.852,17.195,1.284,35.147,1.284,53.88	c0,20.544,0.432,40.908,1.283,61.104c5.58,1.116,11.172,1.68,16.752,1.68c18.48,0,32.16-5.747,41.053-17.22	C2343.7,523.294,2348.175,509.313,2348.175,492.813z"/><path style="fill:#F9F9FA;" d="M2555.644,576.994h-38.16c-9.972-30.42-17.615-49.2-22.943-56.328	c-5.328-7.14-13.92-10.704-25.776-10.704c-4.992,0-9.757,0.048-14.304,0.132c0,22.093,0.383,44.388,1.164,66.9h-35.832	c1.115-25.956,1.68-55.224,1.68-87.78c0-31.271-0.564-57.96-1.68-80.052h22.295c2.58,0,7.969-0.132,16.177-0.384	s15.792-0.385,22.752-0.385c39.444,0,59.172,13.488,59.172,40.477c0,21.396-11.256,36.3-33.768,44.736v1.932	c8.676,2.4,16.284,9.18,22.812,20.292C2535.748,526.954,2544.556,547.342,2555.644,576.994z M2507.308,458.397	c0-17.1-11.004-25.655-33-25.655c-8.076,0-15.217,0.6-21.396,1.8c0.948,13.32,1.416,30.684,1.416,52.08	c4.729,0.18,8.725,0.252,11.988,0.252C2493.64,486.886,2507.308,477.394,2507.308,458.397z"/><path style="fill:#F9F9FA;" d="M2740.419,489.981c0,26.377-8.076,48.252-24.239,65.616c-16.164,17.353-36.144,26.04-59.94,26.04	c-22.691,0-41.688-7.968-56.976-23.916c-15.3-15.936-22.944-36.203-22.944-60.768c0-26.376,8.076-48.252,24.24-65.616	c16.152-17.352,36.132-26.04,59.939-26.04c22.692,0,41.677,7.944,56.977,23.844C2732.776,445.042,2740.419,465.31,2740.419,489.981z M2704.852,493.714c0-17.964-4.597-32.532-13.788-43.704c-9.204-11.172-20.544-16.752-34.032-16.752	c-12.552,0-23.208,5.628-31.968,16.884s-13.164,25.477-13.164,42.672c0,17.868,4.62,32.412,13.859,43.633	c9.24,11.22,20.557,16.824,33.973,16.824c12.54,0,23.208-5.652,31.968-16.957C2700.46,525.022,2704.852,510.813,2704.852,493.714z"	/><path style="fill:#F9F9FA;" d="M2813.308,576.994h-36.48c1.116-26.64,1.68-55.896,1.68-87.78c0-31.368-0.563-58.056-1.68-80.052	h36.48c-1.116,21.66-1.68,48.336-1.68,80.052C2811.628,521.602,2812.192,550.87,2813.308,576.994z"/><path style="fill:#F9F9FA;" d="M3000.148,487.271c0,24.407-7.824,45.72-23.46,63.936c-15.647,18.228-37.56,27.324-65.748,27.324	c-12.72,0-30.252-0.517-52.597-1.549c1.117-25.955,1.681-55.224,1.681-87.779c0-31.272-0.563-57.96-1.681-80.053h22.561	c3.696,0,9.192-0.132,16.5-0.384c7.297-0.252,12.072-0.384,14.305-0.384c31.02,0,53.508,7.74,67.487,23.208	C2993.164,447.058,3000.148,465.61,3000.148,487.271z M2964.964,492.813c0-16.5-4.812-30.396-14.437-41.712	c-9.624-11.292-24.323-16.943-44.088-16.943c-3.696,0-8.76,0.384-15.216,1.164c0.852,17.195,1.283,35.147,1.283,53.88	c0,20.544,0.433,40.908,1.284,61.104c5.58,1.116,11.173,1.68,16.752,1.68c18.479,0,32.16-5.747,41.052-17.22	C2960.488,523.294,2964.964,509.313,2964.964,492.813z"/><path style="fill:#F9F9FA;" d="M3248.02,576.994h-41.256c0-5.676-3.912-21.744-11.748-48.216h-59.556	c-8.076,26.04-12.121,42.107-12.121,48.216h-38.783c0-3.349,10.031-30.853,30.096-82.5c20.064-51.648,30.096-80.101,30.096-85.332	h48.732c0,4.896,9.096,32.928,27.264,84.108C3238.912,544.45,3248.02,572.35,3248.02,576.994z M3188.464,504.154	c-14.7-44.341-22.057-68.316-22.057-71.929h-2.064c0,3.349-7.596,27.324-22.799,71.929H3188.464z"/><path style="fill:#F9F9FA;" d="M3398.38,453.106c0,20.544-7.633,35.712-22.885,45.504s-33.96,14.699-56.137,14.699	c-4.043,0-6.911-0.084-8.639-0.252c0,16.164,0.467,37.465,1.416,63.937h-36.229c1.115-24.828,1.68-54.097,1.68-87.78	c0-30.936-0.563-57.624-1.68-80.052h22.428c3.18,0,9.275-0.132,18.3-0.384s16.837-0.385,23.46-0.385	c16.32,0,30.12,3.696,41.376,11.088C3392.727,426.874,3398.38,438.07,3398.38,453.106z M3365.128,460.198	c0-18.385-12.205-27.588-36.612-27.588c-6.108,0-12.552,0.647-19.332,1.932c0.948,16.248,1.416,34.632,1.416,55.176	c2.147,0.18,4.644,0.252,7.476,0.252C3349.444,489.981,3365.128,480.058,3365.128,460.198z"/><path style="fill:#F9F9FA;" d="M3552.988,453.106c0,20.544-7.632,35.712-22.872,45.504c-15.252,9.792-33.972,14.699-56.147,14.699	c-4.045,0-6.912-0.084-8.641-0.252c0,16.164,0.469,37.465,1.416,63.937h-36.228c1.116-24.828,1.681-54.097,1.681-87.78	c0-30.936-0.564-57.624-1.681-80.052h22.428c3.181,0,9.276-0.132,18.3-0.384s16.836-0.385,23.46-0.385	c16.319,0,30.12,3.696,41.376,11.088C3547.335,426.874,3552.988,438.07,3552.988,453.106z M3519.736,460.198	c0-18.385-12.204-27.588-36.611-27.588c-6.108,0-12.553,0.647-19.332,1.932c0.947,16.248,1.416,34.632,1.416,55.176	c2.147,0.18,4.644,0.252,7.476,0.252C3504.052,489.981,3519.736,480.058,3519.736,460.198z"/><path style="fill:#F9F9FA;" d="M3805.768,489.981c0,26.377-8.076,48.252-24.24,65.616c-16.163,17.364-36.144,26.04-59.94,26.04	c-22.691,0-41.688-7.968-56.975-23.916c-15.289-15.936-22.944-36.203-22.944-60.768c0-26.376,8.076-48.252,24.239-65.616	c16.164-17.364,36.145-26.04,59.94-26.04c22.692,0,41.688,7.944,56.976,23.844C3798.112,445.042,3805.768,465.31,3805.768,489.981z M3770.188,493.714c0-17.964-4.597-32.532-13.788-43.704s-20.544-16.752-34.031-16.752c-12.553,0-23.209,5.628-31.969,16.884	s-13.152,25.477-13.152,42.672c0,17.868,4.621,32.412,13.86,43.633c9.239,11.22,20.556,16.824,33.96,16.824	c12.552,0,23.208-5.652,31.968-16.956C3765.808,525.022,3770.188,510.813,3770.188,493.714z"/><path style="fill:#F9F9FA;" d="M3980.488,576.994h-31.836c0-3.528-11.809-22.128-35.448-55.812	c-24.744-35.496-38.845-59.76-42.276-72.827h-2.064c2.148,18.815,3.229,35.831,3.229,51.048c0,21.228,0.6,47.1,1.801,77.604h-31.717	c1.284-26.64,1.932-55.896,1.932-87.78c0-31.367-0.646-58.056-1.932-80.052h38.28c0,4.56,10.62,22.74,31.836,54.528	c22.608,33.768,35.58,56.676,38.929,68.712h1.932c-2.064-19.164-3.096-36.349-3.096-51.564c0-23.279-0.6-47.184-1.801-71.676h32.232	c-1.212,21.312-1.8,48-1.8,80.052C3978.688,521.518,3979.288,550.774,3980.488,576.994z"/></svg>