<?xml version="1.0" encoding="UTF-8" standalone="no"?>
<!-- Created with Inkscape (http://www.inkscape.org/) -->

<svg
   xmlns:dc="http://purl.org/dc/elements/1.1/"
   xmlns:cc="http://creativecommons.org/ns#"
   xmlns:rdf="http://www.w3.org/1999/02/22-rdf-syntax-ns#"
   xmlns:svg="http://www.w3.org/2000/svg"
   xmlns="http://www.w3.org/2000/svg"
   xmlns:sodipodi="http://sodipodi.sourceforge.net/DTD/sodipodi-0.dtd"
   xmlns:inkscape="http://www.inkscape.org/namespaces/inkscape"
   width="1814.1732"
   height="1814.1732"
   id="svg3120"
   version="1.1"
   inkscape:version="0.91 r13725"
   inkscape:export-filename="C:\Users\sume\Desktop\education_border.png"
   inkscape:export-xdpi="25.4"
   inkscape:export-ydpi="25.4"
   sodipodi:docname="adventure.svg">
  
 
 
  <g
     inkscape:label="Layer 1"
     inkscape:groupmode="layer"
     id="layer1"
     transform="translate(0,761.811)">
    <path
       style="fill:#f4511e;fill-opacity:1;fill-rule:nonzero;stroke:none"
       d="m 907.08658,-679.0248 c -448.44889,0 -811.99548,369.05685 -811.99548,824.30041 0,455.24352 363.54659,824.30041 811.99548,824.30041 448.44882,0 811.99552,-369.05689 811.99552,-824.30041 l -0.083,-11.76077 C 1712.6711,-317.10105 1351.0226,-679.0248 907.08725,-679.0248 Z m 78.18193,84.58549 c 26.86739,3.3e-4 40.30449,13.42488 40.30479,40.26285 l 0,291.63368 -74.16403,0 0,-268.07028 -69.30904,1.33931 0,266.73097 -73.82919,0 0,-330.55723 73.82919,0 0,12.0956 c 17.19507,-2.83625 34.28983,-5.5427 51.27021,-8.16139 21.06405,-3.49083 38.35662,-5.27318 51.89807,-5.27351 z M 1220.6515,-194.82417 1123.6774,290.54836 729.58687,-31.931192 1220.6515,-194.82417 Z M 690.66332,0.04471658 1084.6282,322.60797 593.47999,485.37532 690.66332,0.04471658 Z M 871.42758,534.88782 l 122.83945,0 c 27.29517,2.7e-4 40.93227,13.66011 40.93257,40.93251 l 0,66.4211 -69.93696,0 0,-51.06101 -64.78888,0 0,47.79658 112.83644,67.09075 c 15.0446,8.72745 22.5588,20.91271 22.559,36.62155 l 0,81.82324 c -2e-4,27.27267 -13.6791,40.93251 -40.97444,40.93251 l -124.09491,0 c -27.29558,0 -40.93265,-13.65984 -40.93251,-40.93251 l 0,-70.98317 70.60642,0 0,55.62295 64.78888,0 0,-52.35839 -113.17128,-67.7604 C 837.26151,680.08818 829.8672,668.0943 829.86734,653.03971 l 0,-77.21938 c -1.4e-4,-27.2724 13.83488,-40.93224 41.56024,-40.93251 z"
       id="path3215"
       inkscape:connector-curvature="0" />
  </g>
</svg>
