<?xml version="1.0" encoding="UTF-8" standalone="no"?>
<!-- Created with Inkscape (http://www.inkscape.org/) -->

<svg
   xmlns:dc="http://purl.org/dc/elements/1.1/"
   xmlns:cc="http://creativecommons.org/ns#"
   xmlns:rdf="http://www.w3.org/1999/02/22-rdf-syntax-ns#"
   xmlns:svg="http://www.w3.org/2000/svg"
   xmlns="http://www.w3.org/2000/svg"
   xmlns:sodipodi="http://sodipodi.sourceforge.net/DTD/sodipodi-0.dtd"
   xmlns:inkscape="http://www.inkscape.org/namespaces/inkscape"
   width="1814.1732"
   height="1814.1732"
   id="svg3120"
   version="1.1"
   inkscape:version="0.91 r13725"
   inkscape:export-filename="C:\Users\sume\Desktop\education_border.png"
   inkscape:export-xdpi="25.4"
   inkscape:export-ydpi="25.4"
   sodipodi:docname="art.svg">
  
   
  <g
     inkscape:label="Layer 1"
     inkscape:groupmode="layer"
     id="layer1"
     transform="translate(0,761.811)">
    <g
       id="g4606"
       transform="matrix(1.1448377,0,0,1.1448377,-208.69361,2197.1258)">
      <rect
         transform="matrix(-0.84894458,0.52848188,0.58301393,0.81246216,0,0)"
         y="-1314.5137"
         x="-1891.5409"
         height="960.52594"
         width="155.95004"
         id="rect3249"
         style="fill:#f4511e;fill-opacity:1;fill-rule:nonzero;stroke:none" />
      <path
         sodipodi:nodetypes="sacs"
         inkscape:connector-curvature="0"
         inkscape:original-d="m 714.75222,-2105.8076 c 43.44934,-37.5358 70.01126,-110.4176 44.61811,-160.2902 -55.38691,-108.781 -208.95995,2.2161 -352.24102,-151.0495 -45.06308,390.5325 213.43693,392.707 307.62291,311.3397 z"
         inkscape:path-effect="#path-effect3865-1"
         id="path3251"
         d="m 714.75222,-2105.8076 c 22.87444,-19.7612 39.29934,-46.6077 48.12499,-75.5188 4.34187,-14.2231 6.75823,-29.0992 6.34434,-43.9645 -0.39267,-14.1033 -3.4496,-28.234 -9.85121,-40.8069 -1e-5,0 -1e-5,0 -1e-5,0 -6.13913,-12.0574 -14.51671,-23.083 -25.16069,-31.4362 -9.7559,-7.6562 -21.21048,-12.9592 -33.09439,-16.5043 -10e-6,0 -2e-5,0 -3e-5,0 -12.92679,-3.8561 -26.34183,-5.828 -39.75691,-7.2448 -15.01577,-1.5859 -30.09602,-2.4658 -45.14818,-3.6577 -16.48808,-1.3056 -32.96366,-2.9639 -49.26822,-5.7429 -17.71459,-3.0194 -35.22421,-7.3721 -52.117,-13.5005 0,0 -1e-5,0 -2e-5,0 -18.86612,-6.8443 -36.92424,-15.9064 -53.69461,-26.9304 -19.81169,-13.0232 -37.80994,-28.7134 -54.00097,-46.0327 -4.93244,42.7462 -6.96588,85.9441 -3.58296,128.8408 2.57426,32.6425 8.31094,65.1927 19.39315,96.0042 10e-6,0 2e-5,0 3e-5,10e-5 8.64515,24.0358 20.66751,47.0062 36.88629,66.7397 13.59325,16.5391 30.16829,30.6759 48.89655,41.0475 2e-5,0 3e-5,0 5e-5,0 17.16497,9.5058 36.04678,15.8404 55.4238,18.9271 2e-5,0 4e-5,0 6e-5,0 18.65694,2.972 37.75759,2.9922 56.46815,0.3789 17.89432,-2.4992 35.46414,-7.3836 52.02965,-14.5972 15.18136,-6.6109 29.57806,-15.1767 42.10814,-26.0014 z"
         style="fill:#f4511e;fill-opacity:1;fill-rule:evenodd;stroke:none" />
      <rect
         style="fill:#f4511e;fill-opacity:1;fill-rule:nonzero;stroke:none"
         id="rect3253"
         width="155.9501"
         height="963.83789"
         x="-226.72224"
         y="-2388.0901"
         ry="0"
         rx="2.8613956"
         transform="matrix(0.84894459,0.52848187,-0.58301394,0.81246215,0,0)" />
      <path
         sodipodi:type="star"
         style="fill:#f4511e;fill-opacity:1;fill-rule:nonzero;stroke:none"
         id="path3255"
         sodipodi:sides="3"
         sodipodi:cx="69.285713"
         sodipodi:cy="133.07648"
         sodipodi:r1="19.490734"
         sodipodi:r2="9.3745747"
         sodipodi:arg1="0.8697822"
         sodipodi:arg2="1.9169797"
         inkscape:flatsided="true"
         inkscape:rounded="1.7451318e-015"
         inkscape:randomized="0"
         d="M 81.8571,147.97107 50.100923,136.51632 75.899117,114.74204 Z"
         inkscape:transform-center-x="33.630487"
         transform="matrix(5.3888839,1.1254146,-1.2083008,5.0192208,1135.8169,-2882.3539)"
         inkscape:transform-center-y="1.882897" />
    </g>
    <path
       sodipodi:nodetypes="ccccccc"
       inkscape:connector-curvature="0"
       id="path3349"
       d="m -2095.9613,4140.8799 350.1819,1.2717 88.8129,-820.5386 c 78.1599,297.1644 146.5348,908.8275 181.9861,1178.7537 l 143.1431,-870.7158 92.492,517.1504 303.76559,1.2717"
       style="color:#000000;display:inline;overflow:visible;visibility:visible;fill:none;stroke:#f4511e;stroke-width:52.16991043;stroke-linecap:butt;stroke-linejoin:miter;stroke-miterlimit:4;stroke-dasharray:none;stroke-dashoffset:0;stroke-opacity:1;marker:none;enable-background:accumulate" />
  </g>
</svg>
