<?xml version="1.0" encoding="UTF-8" standalone="no"?>
<!-- Created with Inkscape (http://www.inkscape.org/) -->

<svg
   xmlns:dc="http://purl.org/dc/elements/1.1/"
   xmlns:cc="http://creativecommons.org/ns#"
   xmlns:rdf="http://www.w3.org/1999/02/22-rdf-syntax-ns#"
   xmlns:svg="http://www.w3.org/2000/svg"
   xmlns="http://www.w3.org/2000/svg"
   xmlns:sodipodi="http://sodipodi.sourceforge.net/DTD/sodipodi-0.dtd"
   xmlns:inkscape="http://www.inkscape.org/namespaces/inkscape"
   width="1814.1732"
   height="1814.1732"
   id="svg3120"
   version="1.1"
   inkscape:version="0.91 r13725"
   inkscape:export-filename="C:\Users\sume\Desktop\education_border.png"
   inkscape:export-xdpi="25.4"
   inkscape:export-ydpi="25.4"
   sodipodi:docname="category_icons.svg">
  <defs
     id="defs3">
    <inkscape:path-effect
       effect="skeletal"
       id="path-effect3865-1"
       is_visible="true"
       pattern="m -2.2051717,-1948.0643 1,0"
       copytype="single_stretched"
       prop_scale="1"
       scale_y_rel="false"
       spacing="0"
       normal_offset="0"
       tang_offset="0"
       prop_units="false"
       vertical_pattern="false"
       fuse_tolerance="0" />
  </defs>
  <sodipodi:namedview
     inkscape:document-units="mm"
     id="base"
     pagecolor="#ffffff"
     bordercolor="#666666"
     borderopacity="1.0"
     inkscape:pageopacity="0.0"
     inkscape:pageshadow="2"
     inkscape:zoom="0.12374369"
     inkscape:cx="-247.64054"
     inkscape:cy="634.65355"
     inkscape:current-layer="layer1"
     showgrid="true"
     units="px"
     inkscape:showpageshadow="false"
     inkscape:window-width="1001"
     inkscape:window-height="834"
     inkscape:window-x="709"
     inkscape:window-y="106"
     inkscape:window-maximized="0">
    <inkscape:grid
       type="xygrid"
       id="grid4089"
       empspacing="5"
       visible="true"
       enabled="true"
       snapvisiblegridlinesonly="true" />
  </sodipodi:namedview>
  <metadata
     id="metadata4">
    <rdf:RDF>
      <cc:Work
         rdf:about="">
        <dc:format>image/svg+xml</dc:format>
        <dc:type
           rdf:resource="http://purl.org/dc/dcmitype/StillImage" />
        <dc:title></dc:title>
      </cc:Work>
    </rdf:RDF>
  </metadata>
  <g
     inkscape:label="Layer 1"
     inkscape:groupmode="layer"
     id="layer1"
     transform="translate(0,761.811)">
    <path
       style="fill:#f4511e;fill-opacity:1;fill-rule:nonzero;stroke:none"
       d="m -1331.4043,-470.186 c -334.837,0 -606.2812,275.55847 -606.2812,615.46875 0,339.91025 271.4442,615.46875 606.2812,615.46875 334.83696,0 606.28126,-275.5585 606.28126,-615.46875 l -0.0625,-8.78125 c -4.7248,-336.455 -274.7518,-606.6875 -606.21876,-606.6875 z m 58.375,63.15625 c 20.0607,2.5e-4 30.0936,10.02377 30.0938,30.0625 l 0,217.75 -55.375,0 0,-200.15625 -51.75,1 0,199.15625 -55.125,0 0,-246.8125 55.125,0 0,9.03125 c 12.8388,-2.1177 25.6027,-4.13849 38.2812,-6.09375 15.7276,-2.60645 28.6392,-3.93725 38.75,-3.9375 z m 175.7501,298.375 -72.4063,362.40625 -294.25,-240.78125 366.6563,-121.625 z m -395.7188,145.5 294.1562,240.84375 -366.7187,121.5312 72.5625,-362.37495 z m 134.9687,399.34375 91.7188,0 c 20.3801,2e-4 30.5623,10.1994 30.5625,30.5625 l 0,49.5937 -52.2188,0 0,-38.125 -48.375,0 0,35.6876 84.25,50.0937 c 11.2331,6.5164 16.8436,15.6146 16.8438,27.3437 l 0,61.0938 c -2e-4,20.3633 -10.2136,30.5625 -30.5938,30.5625 l -92.6562,0 c -20.3804,0 -30.5626,-10.1992 -30.5625,-30.5625 l 0,-53 52.7187,0 0,41.5312 48.375,0 0,-39.0937 -84.5,-50.5937 c -11.0728,-6.6791 -16.5938,-15.6344 -16.5937,-26.875 l 0,-57.6563 c -10e-5,-20.3631 10.3299,-30.5623 31.0312,-30.5625 z"
       id="path3215"
       inkscape:connector-curvature="0" />
    <g
       id="g4606"
       transform="translate(3.0562383,-87.586379)">
      <rect
         transform="matrix(-0.84894458,0.52848188,0.58301393,0.81246216,0,0)"
         y="-1314.5137"
         x="-1891.5409"
         height="960.52594"
         width="155.95004"
         id="rect3249"
         style="fill:#f4511e;fill-opacity:1;fill-rule:nonzero;stroke:none" />
      <path
         sodipodi:nodetypes="sacs"
         inkscape:connector-curvature="0"
         inkscape:original-d="m 714.75222,-2105.8076 c 43.44934,-37.5358 70.01126,-110.4176 44.61811,-160.2902 -55.38691,-108.781 -208.95995,2.2161 -352.24102,-151.0495 -45.06308,390.5325 213.43693,392.707 307.62291,311.3397 z"
         inkscape:path-effect="#path-effect3865-1"
         id="path3251"
         d="m 714.75222,-2105.8076 c 22.87444,-19.7612 39.29934,-46.6077 48.12499,-75.5188 4.34187,-14.2231 6.75823,-29.0992 6.34434,-43.9645 -0.39267,-14.1033 -3.4496,-28.234 -9.85121,-40.8069 -1e-5,0 -1e-5,0 -1e-5,0 -6.13913,-12.0574 -14.51671,-23.083 -25.16069,-31.4362 -9.7559,-7.6562 -21.21048,-12.9592 -33.09439,-16.5043 -10e-6,0 -2e-5,0 -3e-5,0 -12.92679,-3.8561 -26.34183,-5.828 -39.75691,-7.2448 -15.01577,-1.5859 -30.09602,-2.4658 -45.14818,-3.6577 -16.48808,-1.3056 -32.96366,-2.9639 -49.26822,-5.7429 -17.71459,-3.0194 -35.22421,-7.3721 -52.117,-13.5005 0,0 -1e-5,0 -2e-5,0 -18.86612,-6.8443 -36.92424,-15.9064 -53.69461,-26.9304 -19.81169,-13.0232 -37.80994,-28.7134 -54.00097,-46.0327 -4.93244,42.7462 -6.96588,85.9441 -3.58296,128.8408 2.57426,32.6425 8.31094,65.1927 19.39315,96.0042 10e-6,0 2e-5,0 3e-5,10e-5 8.64515,24.0358 20.66751,47.0062 36.88629,66.7397 13.59325,16.5391 30.16829,30.6759 48.89655,41.0475 2e-5,0 3e-5,0 5e-5,0 17.16497,9.5058 36.04678,15.8404 55.4238,18.9271 2e-5,0 4e-5,0 6e-5,0 18.65694,2.972 37.75759,2.9922 56.46815,0.3789 17.89432,-2.4992 35.46414,-7.3836 52.02965,-14.5972 15.18136,-6.6109 29.57806,-15.1767 42.10814,-26.0014 z"
         style="fill:#f4511e;fill-opacity:1;fill-rule:evenodd;stroke:none" />
      <rect
         style="fill:#f4511e;fill-opacity:1;fill-rule:nonzero;stroke:none"
         id="rect3253"
         width="155.9501"
         height="963.83789"
         x="-226.72224"
         y="-2388.0901"
         ry="0"
         rx="2.8613956"
         transform="matrix(0.84894459,0.52848187,-0.58301394,0.81246215,0,0)" />
      <path
         sodipodi:type="star"
         style="fill:#f4511e;fill-opacity:1;fill-rule:nonzero;stroke:none"
         id="path3255"
         sodipodi:sides="3"
         sodipodi:cx="69.285713"
         sodipodi:cy="133.07648"
         sodipodi:r1="19.490734"
         sodipodi:r2="9.3745747"
         sodipodi:arg1="0.8697822"
         sodipodi:arg2="1.9169797"
         inkscape:flatsided="true"
         inkscape:rounded="1.7451318e-015"
         inkscape:randomized="0"
         d="M 81.8571,147.97107 50.100923,136.51632 75.899117,114.74204 Z"
         inkscape:transform-center-x="33.630487"
         transform="matrix(5.3888839,1.1254146,-1.2083008,5.0192208,1135.8169,-2882.3539)"
         inkscape:transform-center-y="1.882897" />
    </g>
    <g
       transform="matrix(14.983523,0,0,16.861732,1802.1524,-6360.5754)"
       id="g3267">
      <g
         id="g4163"
         transform="matrix(1,0,0,0.96910141,-1.1006584,10.32046)">
        <path
           inkscape:connector-curvature="0"
           id="rect3271"
           d="m -225.95892,208.00277 c -1.5941,0 -2.87742,0.9714 -2.87742,2.17833 l 0,2.61284 c 0,0.022 6.5e-4,0.0445 7.8e-4,0.0664 l 46.03577,0 c 7.9e-4,-0.0217 7.9e-4,-0.0444 7.9e-4,-0.0664 l 0,-2.61284 c 0,-1.20693 -1.28337,-2.17833 -2.87744,-2.17833 l -40.2839,0 z"
           style="fill:#f4511e;fill-opacity:1;fill-rule:nonzero;stroke:none" />
        <path
           id="rect3269"
           transform="matrix(0.05997826,0,0,0.05930589,-245.17639,192.9288)"
           d="m 261.21875,410.625 c -5.76061,0 -10.40625,4.64564 -10.40625,10.40625 l 0,1069.31255 c 0,5.7606 4.64564,10.375 10.40625,10.375 l 205.53125,0 0,-452.0626 877.1562,0 0,452.0626 245.75,0 c 5.7607,0 10.4063,-4.6144 10.4063,-10.375 l 0,-1069.31255 c 0,-5.76061 -4.6456,-10.40625 -10.4063,-10.40625 l -1328.43745,0 z"
           style="fill:#f4511e;fill-opacity:1;fill-rule:nonzero;stroke:none"
           inkscape:connector-curvature="0" />
        <rect
           rx="0.016854392"
           ry="0.015454524"
           y="253.14153"
           x="-215.37263"
           height="0.50507629"
           width="2.0203052"
           id="rect3273"
           style="fill:#f4511e;fill-opacity:1;fill-rule:nonzero;stroke:none" />
        <rect
           style="fill:#f4511e;fill-opacity:1;fill-rule:nonzero;stroke:none"
           id="rect3277"
           width="45.583477"
           height="23.241312"
           x="-213.9877"
           y="259.00583"
           ry="0.38427401"
           rx="0" />
      </g>
    </g>
    <g
       id="g4202"
       transform="matrix(1.1682038,0,0,1.2516707,-152.57543,-36.561609)">
      <path
         inkscape:connector-curvature="0"
         style="fill:#f4511e;fill-opacity:1;fill-rule:nonzero;stroke:none"
         d="M 1055.324,-546.58339 833.75251,-200.82477 487.79552,-441.81101 593.03675,-51.038348 165.79504,6.8647474 536.33621,213.67547 278.04537,536.68296 696.70877,438.3551 758.84921,837.1346 980.4207,491.37598 1326.3777,732.36222 1221.1365,341.58956 1648.3782,283.58882 1277.837,76.778098 l 258.1862,-322.909848 -418.6634,98.23021 -62.0358,-398.68185 z m -148.23739,387.15982 c 171.94029,0 312.01739,133.771295 314.46829,300.354 l 0,4.29635 c 0,168.29345 -140.7799,304.748 -314.46829,304.748 -173.68841,0 -314.46832,-136.45455 -314.46832,-304.748 0,-168.293458 140.77991,-304.65035 314.46832,-304.65035 z"
         id="path3399" />
      <path
         transform="matrix(2.4219799,0,0,2.3330999,2426.4061,-92.254118)"
         sodipodi:open="true"
         sodipodi:end="6.2689307"
         sodipodi:start="0"
         d="M -521.23873,101.80864 A 106.06602,110.10663 0 0 1 -626.92677,211.91457 106.06602,110.10663 0 0 1 -733.36807,102.5934 106.06602,110.10663 0 0 1 -628.43867,-8.2916965 106.06602,110.10663 0 0 1 -521.24951,100.23917"
         sodipodi:ry="110.10663"
         sodipodi:rx="106.06602"
         sodipodi:cy="101.80864"
         sodipodi:cx="-627.30475"
         id="path3401"
         style="fill:#f4511e;fill-opacity:1;fill-rule:nonzero;stroke:none"
         sodipodi:type="arc" />
    </g>
    <g
       id="g4442"
       transform="matrix(1,0,0,0.99996789,1.9555442e-5,2182.8816)">
      <path
         style="color:#000000;display:inline;overflow:visible;visibility:visible;fill:#f4511e;fill-opacity:1;fill-rule:evenodd;stroke:none;stroke-width:1;marker:none;enable-background:accumulate"
         d="m 655.54388,-241.25959 c 0,0 53.84836,-298.00529 266.46008,-214.03129 212.61164,83.97399 -94.7741,627.10186 -94.7741,627.10186 z"
         id="path3321"
         inkscape:connector-curvature="0"
         sodipodi:nodetypes="cscc" />
      <path
         sodipodi:nodetypes="cscc"
         inkscape:connector-curvature="0"
         id="path3323"
         d="m 658.3811,-242.33429 c 0,0 -253.22567,-181.68962 -347.68789,18.60001 -94.46221,200.289629 519.37387,394.47056 519.37387,394.47056 z"
         style="color:#000000;display:inline;overflow:visible;visibility:visible;fill:#f4511e;fill-opacity:1;fill-rule:evenodd;stroke:none;stroke-width:1;marker:none;enable-background:accumulate" />
      <g
         id="g3325"
         transform="matrix(6.3269053,9.843267,-10.31091,6.0399536,3773.5601,-5397.1915)">
        <path
           style="color:#000000;display:inline;overflow:visible;visibility:visible;fill:#f4511e;fill-opacity:1;fill-rule:evenodd;stroke:none;stroke-width:6.76853561;marker:none;enable-background:accumulate"
           d="m 295.18065,419.36227 c 0,0 9.85,-16.11818 19.7,-6.56666 9.85,9.55151 -19.7,34.32575 -19.7,34.32575 z"
           id="path3331"
           inkscape:connector-curvature="0"
           sodipodi:nodetypes="cscc" />
        <path
           sodipodi:nodetypes="cscc"
           inkscape:connector-curvature="0"
           id="path3333"
           d="m 295.36267,419.36227 c 0,0 -9.85,-16.11818 -19.7,-6.56666 -9.85,9.55151 19.7,34.32575 19.7,34.32575 z"
           style="color:#000000;display:inline;overflow:visible;visibility:visible;fill:#f4511e;fill-opacity:1;fill-rule:evenodd;stroke:none;stroke-width:1;marker:none;enable-background:accumulate" />
      </g>
      <path
         style="color:#000000;display:inline;overflow:visible;visibility:visible;fill:none;stroke:#f4511e;stroke-width:31.92086601;stroke-linecap:butt;stroke-linejoin:miter;stroke-miterlimit:4;stroke-dasharray:none;stroke-dashoffset:0;stroke-opacity:1;marker:none;enable-background:accumulate"
         d="M 817.61083,153.43606 C 837.75594,554.91027 498.55093,365.2799 450.65631,673.55008"
         id="path3335"
         inkscape:connector-curvature="0"
         sodipodi:nodetypes="cc" />
      <path
         style="color:#000000;display:inline;overflow:visible;visibility:visible;fill:none;stroke:#f4511e;stroke-width:31.92086601;stroke-linecap:butt;stroke-linejoin:miter;stroke-miterlimit:4;stroke-dasharray:none;stroke-dashoffset:0;stroke-opacity:1;marker:none;enable-background:accumulate"
         d="m 1049.9999,203.36818 c 3.019,255.7151 171.657,445.44424 -160.59212,541.42857"
         id="path3337"
         inkscape:connector-curvature="0"
         sodipodi:nodetypes="cc" />
    </g>
    <path
       sodipodi:nodetypes="ccccccc"
       inkscape:connector-curvature="0"
       id="path3349"
       d="m -2095.9613,4140.8799 350.1819,1.2717 88.8129,-820.5386 c 78.1599,297.1644 146.5348,908.8275 181.9861,1178.7537 l 143.1431,-870.7158 92.492,517.1504 303.76559,1.2717"
       style="color:#000000;display:inline;overflow:visible;visibility:visible;fill:none;stroke:#f4511e;stroke-width:52.16991043;stroke-linecap:butt;stroke-linejoin:miter;stroke-miterlimit:4;stroke-dasharray:none;stroke-dashoffset:0;stroke-opacity:1;marker:none;enable-background:accumulate" />
    <g
       id="g3077">
      <path
         style="color:#000000;display:inline;overflow:visible;visibility:visible;fill:none;stroke:#f4511e;stroke-width:122.20967865;stroke-linecap:butt;stroke-linejoin:miter;stroke-miterlimit:4;stroke-dasharray:none;stroke-dashoffset:0;stroke-opacity:1;marker:none;enable-background:accumulate"
         d="m -2940.1318,188.66881 12.0835,-597.91681 -821.6658,303.55952 12.0834,596.46778 0,0"
         id="path3363"
         inkscape:connector-curvature="0"
         sodipodi:nodetypes="ccccc" />
      <path
         sodipodi:type="arc"
         style="fill:none;stroke:#f4511e;stroke-width:8.69633579;stroke-linecap:round;stroke-linejoin:round;stroke-miterlimit:4;stroke-dasharray:none;stroke-dashoffset:0;stroke-opacity:1"
         id="path3365"
         sodipodi:cx="-120"
         sodipodi:cy="415.93362"
         sodipodi:rx="11.428572"
         sodipodi:ry="13.571428"
         d="m -108.57143,415.93362 a 11.428572,13.571428 0 0 1 -11.38784,13.57135 11.428572,13.571428 0 0 1 -11.46901,-13.47462 11.428572,13.571428 0 0 1 11.3061,-13.66738 11.428572,13.571428 0 0 1 11.54959,13.37721"
         sodipodi:start="0"
         sodipodi:end="6.2689307"
         transform="matrix(13.512502,0,0,9.8599266,-2218.4997,-3524.1735)"
         sodipodi:open="true" />
      <path
         sodipodi:open="true"
         transform="matrix(13.004026,0,0,9.4888971,-1479.7211,-3690.0962)"
         sodipodi:end="6.2689307"
         sodipodi:start="0"
         d="m -108.57143,415.93362 a 11.428572,13.571428 0 0 1 -11.38784,13.57135 11.428572,13.571428 0 0 1 -11.46901,-13.47462 11.428572,13.571428 0 0 1 11.3061,-13.66738 11.428572,13.571428 0 0 1 11.54959,13.37721"
         sodipodi:ry="13.571428"
         sodipodi:rx="11.428572"
         sodipodi:cy="415.93362"
         sodipodi:cx="-120"
         id="path3367"
         style="fill:none;stroke:#f4511e;stroke-width:10.01031494;stroke-linecap:round;stroke-linejoin:round;stroke-miterlimit:4;stroke-dasharray:none;stroke-dashoffset:0;stroke-opacity:1"
         sodipodi:type="arc" />
    </g>
    <g
       id="g4599"
       transform="matrix(1.1950004,0,0,1.0248794,3199.4958,-1683.1107)">
      <path
         style="fill:#f4511e;fill-opacity:0.98941806;stroke:none"
         d="m 669.87778,-453.25049 0,256.99274 c 0,105.937359 105.64587,191.11058 237.04671,191.11058 131.40081,0 237.37081,-85.173221 237.37081,-191.11058 l 0,-256.99274 -474.41752,0 z"
         id="path3381"
         inkscape:connector-curvature="0" />
      <rect
         style="fill:#f4511e;fill-opacity:1;fill-rule:nonzero;stroke:none"
         id="rect3383"
         width="40.88208"
         height="594.22601"
         x="886.64551"
         y="42.953697"
         rx="0.92819583"
         ry="0" />
      <path
         style="fill:#f4511e;fill-opacity:0.98941806;stroke:none"
         d="m 908.22159,686.09273 c -76.88222,0.38818 -143.76519,24.9012 -181.27103,61.69917 l 360.27204,0 c -37.932,-37.37271 -100.93254,-62.09313 -179.00101,-61.69917 z"
         id="path3385"
         inkscape:connector-curvature="0" />
    </g>
    <g
       id="g4705"
       transform="translate(-4082.8618,-2113.0548)">
      <path
         style="color:#000000;display:inline;overflow:visible;visibility:visible;fill:none;stroke:#f4511e;stroke-width:75.35816956;stroke-linecap:butt;stroke-linejoin:miter;stroke-miterlimit:4;stroke-dasharray:none;stroke-dashoffset:0;stroke-opacity:1;marker:none;enable-background:accumulate"
         d="M 1123.9854,-250.35333 C 888.07766,131.40693 882.86183,125.41697 882.86183,125.41697 l 129.71607,200.16454 24.3145,388.53883"
         id="path3427"
         inkscape:connector-curvature="0"
         sodipodi:nodetypes="cccc" />
      <path
         style="color:#000000;display:inline;overflow:visible;visibility:visible;fill:none;stroke:#f4511e;stroke-width:75.35816956;stroke-linecap:butt;stroke-linejoin:miter;stroke-miterlimit:4;stroke-dasharray:none;stroke-dashoffset:0;stroke-opacity:1;marker:none;enable-background:accumulate"
         d="M 828.13434,176.13326 655.76247,346.9739 c -137.81345,-2.72768 -182.21866,-4.74005 -320.01988,-3.96523"
         id="path3429"
         inkscape:connector-curvature="0"
         sodipodi:nodetypes="ccc" />
      <path
         style="color:#000000;display:inline;overflow:visible;visibility:visible;fill:none;stroke:#f4511e;stroke-width:75.35816956;stroke-linecap:butt;stroke-linejoin:miter;stroke-miterlimit:4;stroke-dasharray:none;stroke-dashoffset:0;stroke-opacity:1;marker:none;enable-background:accumulate"
         d="m 1120,-217.63778 c 0,0 57.3994,152.766173 120.4213,196.887168 66.31,46.422958 238.0093,48.172483 238.0093,48.172483"
         id="path3431"
         inkscape:connector-curvature="0"
         sodipodi:nodetypes="cac" />
      <path
         style="color:#000000;display:inline;overflow:visible;visibility:visible;fill:none;stroke:#f4511e;stroke-width:75.98802185;stroke-linecap:butt;stroke-linejoin:miter;stroke-miterlimit:4;stroke-dasharray:none;stroke-dashoffset:0;stroke-opacity:1;marker:none;enable-background:accumulate"
         d="m 1049.554,-254.20129 c 0,0 -95.77245,-77.43387 -150.07978,-94.58709 -65.89786,-20.81433 -205.00512,-7.49811 -205.00512,-7.49811"
         id="path3433"
         inkscape:connector-curvature="0"
         sodipodi:nodetypes="csc" />
      <ellipse
         style="fill:none;stroke:#f4511e;stroke-width:8.84357929;stroke-linecap:round;stroke-linejoin:round;stroke-miterlimit:4;stroke-dasharray:none;stroke-dashoffset:0;stroke-opacity:1"
         id="path3435"
         transform="matrix(10.236009,1.6986466,-1.3816986,13.732577,4715.9689,-4165.3258)"
         cx="-296.22723"
         cy="314.19321"
         rx="5.3033009"
         ry="3.9177594" />
    </g>
    <path
       style="fill:#f4511e;fill-opacity:1;fill-rule:evenodd;stroke:none"
       d="m 3541.1875,1684.1123 c -289.2391,1.2246 -544.8897,209.2747 -596.2813,504.1875 -57.7028,331.13 163.9617,646.36 495.0938,704.0624 331.1321,57.7025 646.3284,-163.9636 704.0312,-495.0937 l 0.1876,-1.0937 c 57.0303,-330.8102 -164.5729,-645.3089 -495.2813,-702.9375 -36.2176,-6.3112 -72.2295,-9.2754 -107.75,-9.125 z m 1.1562,217.8437 c 22.8079,-0.097 45.9634,1.7913 69.2188,5.8438 208.7703,36.3799 350.4766,232.5532 319.4687,442.1875 l -1.5937,9.9062 c -37.0511,212.6195 -239.4417,354.9259 -452.0625,317.875 -212.6208,-37.0509 -354.9574,-239.443 -317.9063,-452.0625 32.9987,-189.3642 197.1539,-322.9636 382.875,-323.75 z"
       id="path4741"
       inkscape:connector-curvature="0" />
    <g
       id="g3032"
       transform="translate(-4182.8711,2153.3624)">
      <rect
         ry="0"
         y="-461.00021"
         x="831.30212"
         height="1212.5516"
         width="151.56895"
         id="rect5212-9"
         style="fill:#f4511e;fill-opacity:1;fill-rule:nonzero;stroke:none" />
      <rect
         transform="matrix(0,1,-1,0,0,0)"
         style="fill:#f4511e;fill-opacity:1;fill-rule:nonzero;stroke:none"
         id="rect5722-48"
         width="151.56895"
         height="1212.5516"
         x="69.491127"
         y="-1513.3624"
         ry="0" />
    </g>
    <g
       id="g3061"
       transform="translate(3599.4914,-125.00891)">
      <path
         sodipodi:nodetypes="cccccccccc"
         id="path3293"
         d="m 821.53175,-267.43611 c -21.48873,118.55355 -75.15801,262.729215 -137.6875,406.53125 58.25308,58.08004 138.9468,87.15778 208.9375,113.09375 58.65719,-119.62912 136.72675,-259.938645 240.74995,-423.53125 -203.99314,29.68482 -231.10995,-22.89023 -311.99995,-96.09375 z m -198.8125,541.68745 c -87.33829,187.163 -177.24567,359.2368 -215.15625,455.3438 88.6048,105.62429 135.2666,98.51099 308.34375,99.0625 0.35765,-52.68551 6.63508,-188.29931 116.1875,-444.5313 -67.18613,-23.6403 -151.74468,-47.0572 -209.375,-109.875 z"
         style="color:#000000;display:inline;overflow:visible;visibility:visible;fill:#f4511e;fill-opacity:1;fill-rule:evenodd;stroke:none;stroke-width:1;marker:none;enable-background:accumulate"
         inkscape:connector-curvature="0" />
      <path
         sodipodi:nodetypes="ccccccsssscccsssc"
         inkscape:connector-curvature="0"
         id="path3297"
         d="m 1003.1875,-449.713 c -27.88368,2.12813 -53.8274,8.29731 -75.625,18 23.08088,-7.73072 49.11955,-11.66908 76.3125,-11.34375 z m 0.6875,6.65625 36.125,35.41897 c 38.8761,-7.13373 100,40 100,40 60,40 51.3769,105.10005 5.75,134.48728 -55.4049,35.68508 -156.83949,24.46851 -221.46875,-18.46875 -78.02684,-51.83811 -80.75842,-128.8395 -16.625,-169.53125 6.14436,-3.89851 12.8113,-7.40435 19.90625,-10.5625 -36.18586,12.12011 -65.07125,33.53662 -79.4375,62.40625 l -0.8125,1.6875 c -30.48103,64.44517 22.31126,140.818 118.5,171.46875 97.1667,30.96238 202.0083,3.63437 234.1875,-61.03125 32.1792,-64.66562 -20.4895,-142.19387 -117.6562,-173.15625 -26.1178,-8.32249 -52.8007,-12.41166 -78.4688,-12.71875 z"
         style="fill:#f4511e;fill-opacity:1;fill-rule:nonzero;stroke:none" />
      <path
         style="color:#000000;display:inline;overflow:visible;visibility:visible;fill:#f4511e;fill-opacity:1;fill-rule:evenodd;stroke:none;stroke-width:1.98967111;marker:none;enable-background:accumulate"
         d="m 921.16024,261.74605 c 103.22946,60.12039 198.76176,167.54611 300.96646,172.20742 l -42.3058,86.77693 C 1091.6087,414.68576 996.91964,356.57747 901.72786,302.18958 Z"
         id="path3303"
         inkscape:connector-curvature="0"
         sodipodi:nodetypes="ccccc" />
      <path
         style="color:#000000;display:inline;overflow:visible;visibility:visible;fill:#f4511e;fill-opacity:1;fill-rule:evenodd;stroke:none;stroke-width:1;marker:none;enable-background:accumulate"
         d="m 860.51899,386.74322 c 39.01003,125.8908 81.10855,252.15042 60.27585,370.89429 L 1074.5866,697.10766 C 959.97994,590.58223 943.83644,449.69353 887.96424,322.66991 Z"
         id="path3305"
         inkscape:connector-curvature="0"
         sodipodi:nodetypes="ccccc" />
      <path
         sodipodi:nodetypes="ccccc"
         inkscape:connector-curvature="0"
         id="path4286"
         d="m 667.75824,180.17836 c 37.81395,43.1172 157.91948,93.0878 204.28571,111.42858 l -30,62.85713 C 797.49285,337.05264 678.61636,289.99966 640.61538,241.60693 Z"
         style="color:#000000;display:inline;overflow:visible;visibility:visible;fill:#f4511e;fill-opacity:1;fill-rule:evenodd;stroke:none;stroke-width:34.30452347;marker:none;enable-background:accumulate" />
      <path
         style="fill:#f4511e;fill-opacity:1;fill-rule:nonzero;stroke:none"
         d="m 1012.6811,-389.16292 c -15.20454,1.16044 -29.35126,4.5244 -41.23716,9.81513 12.58566,-4.21545 26.78415,-6.36297 41.61206,-6.18558 z m 0.3749,3.62955 19.6984,19.31343 c 21.1985,-3.88991 54.5285,21.8114 54.5285,21.8114 32.7171,21.8114 28.015,57.30947 3.1354,73.33388 -30.2114,19.45854 -85.5222,13.34231 -120.76357,-10.07073 -42.54686,-28.26653 -44.03636,-70.25423 -9.06537,-92.44283 3.35043,-2.1258 6.98581,-4.03748 10.85458,-5.75957 -19.7316,6.60891 -35.48237,18.28701 -43.31607,34.02918 l -0.44305,0.92018 c -16.62084,35.14097 12.166,76.78592 64.61627,93.49932 52.98351,16.88331 110.15211,1.98176 127.69891,-33.27942 17.5468,-35.26119 -11.1726,-77.53617 -64.1562,-94.41949 -14.2416,-4.53813 -28.7914,-6.7679 -42.7878,-6.93535 z"
         id="path3059"
         inkscape:connector-curvature="0"
         sodipodi:nodetypes="ccccccsssscccsssc" />
    </g>
  </g>
</svg>
