<?xml version="1.0" encoding="UTF-8" standalone="no"?>
<!-- Created with Inkscape (http://www.inkscape.org/) -->

<svg
   xmlns:dc="http://purl.org/dc/elements/1.1/"
   xmlns:cc="http://creativecommons.org/ns#"
   xmlns:rdf="http://www.w3.org/1999/02/22-rdf-syntax-ns#"
   xmlns:svg="http://www.w3.org/2000/svg"
   xmlns="http://www.w3.org/2000/svg"
   xmlns:sodipodi="http://sodipodi.sourceforge.net/DTD/sodipodi-0.dtd"
   xmlns:inkscape="http://www.inkscape.org/namespaces/inkscape"
   width="1814.1732"
   height="1814.1732"
   id="svg3120"
   version="1.1"
   inkscape:version="0.91 r13725"
   inkscape:export-filename="C:\Users\sume\Desktop\education_border.png"
   inkscape:export-xdpi="25.4"
   inkscape:export-ydpi="25.4"
   sodipodi:docname="education.svg">
  
  
     
  <g
     inkscape:label="Layer 1"
     inkscape:groupmode="layer"
     id="layer1"
     transform="translate(0,761.811)">
    <g
       id="g3061"
       transform="matrix(1.278146,0,0,1.278146,-134.40408,-96.89768)">
      <path
         sodipodi:nodetypes="cccccccccc"
         id="path3293"
         d="m 821.53175,-267.43611 c -21.48873,118.55355 -75.15801,262.729215 -137.6875,406.53125 58.25308,58.08004 138.9468,87.15778 208.9375,113.09375 58.65719,-119.62912 136.72675,-259.938645 240.74995,-423.53125 -203.99314,29.68482 -231.10995,-22.89023 -311.99995,-96.09375 z m -198.8125,541.68745 c -87.33829,187.163 -177.24567,359.2368 -215.15625,455.3438 88.6048,105.62429 135.2666,98.51099 308.34375,99.0625 0.35765,-52.68551 6.63508,-188.29931 116.1875,-444.5313 -67.18613,-23.6403 -151.74468,-47.0572 -209.375,-109.875 z"
         style="color:#000000;display:inline;overflow:visible;visibility:visible;fill:#f4511e;fill-opacity:1;fill-rule:evenodd;stroke:none;stroke-width:1;marker:none;enable-background:accumulate"
         inkscape:connector-curvature="0" />
      <path
         sodipodi:nodetypes="ccccccsssscccsssc"
         inkscape:connector-curvature="0"
         id="path3297"
         d="m 1003.1875,-449.713 c -27.88368,2.12813 -53.8274,8.29731 -75.625,18 23.08088,-7.73072 49.11955,-11.66908 76.3125,-11.34375 z m 0.6875,6.65625 36.125,35.41897 c 38.8761,-7.13373 100,40 100,40 60,40 51.3769,105.10005 5.75,134.48728 -55.4049,35.68508 -156.83949,24.46851 -221.46875,-18.46875 -78.02684,-51.83811 -80.75842,-128.8395 -16.625,-169.53125 6.14436,-3.89851 12.8113,-7.40435 19.90625,-10.5625 -36.18586,12.12011 -65.07125,33.53662 -79.4375,62.40625 l -0.8125,1.6875 c -30.48103,64.44517 22.31126,140.818 118.5,171.46875 97.1667,30.96238 202.0083,3.63437 234.1875,-61.03125 32.1792,-64.66562 -20.4895,-142.19387 -117.6562,-173.15625 -26.1178,-8.32249 -52.8007,-12.41166 -78.4688,-12.71875 z"
         style="fill:#f4511e;fill-opacity:1;fill-rule:nonzero;stroke:none" />
      <path
         style="color:#000000;display:inline;overflow:visible;visibility:visible;fill:#f4511e;fill-opacity:1;fill-rule:evenodd;stroke:none;stroke-width:1.98967111;marker:none;enable-background:accumulate"
         d="m 921.16024,261.74605 c 103.22946,60.12039 198.76176,167.54611 300.96646,172.20742 l -42.3058,86.77693 C 1091.6087,414.68576 996.91964,356.57747 901.72786,302.18958 Z"
         id="path3303"
         inkscape:connector-curvature="0"
         sodipodi:nodetypes="ccccc" />
      <path
         style="color:#000000;display:inline;overflow:visible;visibility:visible;fill:#f4511e;fill-opacity:1;fill-rule:evenodd;stroke:none;stroke-width:1;marker:none;enable-background:accumulate"
         d="m 860.51899,386.74322 c 39.01003,125.8908 81.10855,252.15042 60.27585,370.89429 L 1074.5866,697.10766 C 959.97994,590.58223 943.83644,449.69353 887.96424,322.66991 Z"
         id="path3305"
         inkscape:connector-curvature="0"
         sodipodi:nodetypes="ccccc" />
      <path
         sodipodi:nodetypes="ccccc"
         inkscape:connector-curvature="0"
         id="path4286"
         d="m 667.75824,180.17836 c 37.81395,43.1172 157.91948,93.0878 204.28571,111.42858 l -30,62.85713 C 797.49285,337.05264 678.61636,289.99966 640.61538,241.60693 Z"
         style="color:#000000;display:inline;overflow:visible;visibility:visible;fill:#f4511e;fill-opacity:1;fill-rule:evenodd;stroke:none;stroke-width:34.30452347;marker:none;enable-background:accumulate" />
      <path
         style="fill:#f4511e;fill-opacity:1;fill-rule:nonzero;stroke:none"
         d="m 1012.6811,-389.16292 c -15.20454,1.16044 -29.35126,4.5244 -41.23716,9.81513 12.58566,-4.21545 26.78415,-6.36297 41.61206,-6.18558 z m 0.3749,3.62955 19.6984,19.31343 c 21.1985,-3.88991 54.5285,21.8114 54.5285,21.8114 32.7171,21.8114 28.015,57.30947 3.1354,73.33388 -30.2114,19.45854 -85.5222,13.34231 -120.76357,-10.07073 -42.54686,-28.26653 -44.03636,-70.25423 -9.06537,-92.44283 3.35043,-2.1258 6.98581,-4.03748 10.85458,-5.75957 -19.7316,6.60891 -35.48237,18.28701 -43.31607,34.02918 l -0.44305,0.92018 c -16.62084,35.14097 12.166,76.78592 64.61627,93.49932 52.98351,16.88331 110.15211,1.98176 127.69891,-33.27942 17.5468,-35.26119 -11.1726,-77.53617 -64.1562,-94.41949 -14.2416,-4.53813 -28.7914,-6.7679 -42.7878,-6.93535 z"
         id="path3059"
         inkscape:connector-curvature="0"
         sodipodi:nodetypes="ccccccsssscccsssc" />
    </g>
  </g>
</svg>
